<svg width="192" height="192" viewBox="0 0 192 192" fill="none" xmlns="http://www.w3.org/2000/svg">
<g id="Dry">
<rect y="-1.52588e-05" width="192" height="192" rx="96" fill="#C6B7FB"/>
<g id="Group 3">
<path id="Vector" d="M137.633 137.462H114.94V126.154H116.831C125.355 126.145 133.527 122.767 139.554 116.76C145.581 110.754 148.971 102.61 148.98 94.1154C148.98 90.6166 147.585 87.261 145.103 84.787C142.62 82.313 139.253 80.9231 135.742 80.9231C132.231 80.9231 128.864 82.313 126.381 84.787C123.899 87.261 122.504 90.6166 122.504 94.1154C122.504 95.6149 121.906 97.0529 120.842 98.1132C119.778 99.1735 118.335 99.7692 116.831 99.7692H114.94V65.8461C114.94 60.8478 112.947 56.0542 109.401 52.5199C105.854 48.9855 101.044 47 96.0283 47C91.0127 47 86.2025 48.9855 82.656 52.5199C79.1094 56.0542 77.117 60.8478 77.117 65.8461V80.9231H75.2259C73.7212 80.9231 72.2781 80.3274 71.2142 79.2671C70.1502 78.2068 69.5525 76.7687 69.5525 75.2692C69.5525 71.7704 68.1578 68.4149 65.6752 65.9408C63.1926 63.4668 59.8255 62.0769 56.3146 62.0769C52.8037 62.0769 49.4365 63.4668 46.954 65.9408C44.4714 68.4149 43.0767 71.7704 43.0767 75.2692C43.0854 83.7637 46.4754 91.9077 52.5026 97.9142C58.5299 103.921 66.7021 107.299 75.2259 107.308H77.117V137.462H54.4234C53.4203 137.462 52.4583 137.859 51.749 138.566C51.0397 139.272 50.6412 140.231 50.6412 141.231C50.6412 142.23 51.0397 143.189 51.749 143.896C52.4583 144.603 53.4203 145 54.4234 145H137.633C138.636 145 139.598 144.603 140.308 143.896C141.017 143.189 141.415 142.23 141.415 141.231C141.415 140.231 141.017 139.272 140.308 138.566C139.598 137.859 138.636 137.462 137.633 137.462ZM80.8993 99.7692H75.2259C68.7079 99.7617 62.4591 97.1781 57.8502 92.5851C53.2413 87.992 50.6487 81.7647 50.6412 75.2692C50.6412 73.7697 51.2389 72.3316 52.3029 71.2713C53.3668 70.211 54.8099 69.6154 56.3146 69.6154C57.8192 69.6154 59.2623 70.211 60.3263 71.2713C61.3902 72.3316 61.988 73.7697 61.988 75.2692C61.988 78.768 63.3827 82.1235 65.8652 84.5976C68.3478 87.0716 71.715 88.4615 75.2259 88.4615H80.8993C81.9024 88.4615 82.8644 88.0644 83.5737 87.3575C84.283 86.6507 84.6815 85.692 84.6815 84.6923V65.8461C84.6815 62.8471 85.877 59.971 88.0049 57.8504C90.1328 55.7298 93.0189 54.5384 96.0283 54.5384C99.0376 54.5384 101.924 55.7298 104.052 57.8504C106.18 59.971 107.375 62.8471 107.375 65.8461V103.538C107.375 104.538 107.774 105.497 108.483 106.204C109.192 106.911 110.154 107.308 111.157 107.308H116.831C120.342 107.308 123.709 105.918 126.191 103.444C128.674 100.97 130.069 97.6142 130.069 94.1154C130.069 92.6159 130.666 91.1778 131.73 90.1175C132.794 89.0572 134.237 88.4615 135.742 88.4615C137.247 88.4615 138.69 89.0572 139.754 90.1175C140.818 91.1778 141.415 92.6159 141.415 94.1154C141.408 100.611 138.815 106.838 134.206 111.431C129.598 116.024 123.349 118.608 116.831 118.615H111.157C110.154 118.615 109.192 119.012 108.483 119.719C107.774 120.426 107.375 121.385 107.375 122.385V137.462H84.6815V103.538C84.6815 102.539 84.283 101.58 83.5737 100.873C82.8644 100.166 81.9024 99.7692 80.8993 99.7692Z" fill="white"/>
<path id="Line 16" d="M103.141 63.2639L116.79 54.1129" stroke="white" stroke-width="8" stroke-linecap="round"/>
<path id="Line 17" d="M85.967 79.0704L72.3185 69.9193" stroke="white" stroke-width="8" stroke-linecap="round"/>
<path id="Line 18" d="M149.193 110.683L135.544 101.532" stroke="white" stroke-width="8" stroke-linecap="round"/>
</g>
</g>
</svg>
