<svg width="192" height="192" viewBox="0 0 192 192" fill="none" xmlns="http://www.w3.org/2000/svg">
<g id="Normal">
<rect width="192" height="192" rx="96" fill="#C6B7FB"/>
<path id="Vector" d="M100.4 57.8889C100.4 58.4412 100.848 58.8889 101.4 58.8889H105.526C105.526 58.8889 105.526 58.8889 105.526 58.8889C107.045 58.889 108.544 59.2455 109.903 59.9307L118.424 64.2263C118.564 64.2967 118.718 64.3333 118.874 64.3333H139.2C140.364 64.3333 141.483 64.7996 142.308 65.6322C143.134 66.4651 143.6 67.5964 143.6 68.7778C143.6 69.9592 143.134 71.0905 142.308 71.9234C141.483 72.756 140.364 73.2222 139.2 73.2222H137.137C136.791 73.2222 136.47 73.4011 136.287 73.6951C136.105 73.9891 136.088 74.3565 136.241 74.6664L148.532 99.455L148.533 99.4576C148.841 100.074 149 100.754 149 101.444C149 106.958 146.828 112.243 142.964 116.139C139.1 120.035 133.861 122.222 128.4 122.222C122.939 122.222 117.7 120.035 113.836 116.139C109.972 112.243 107.8 106.958 107.8 101.444C107.8 100.754 107.959 100.074 108.267 99.4576L108.268 99.455L120.559 74.6664C120.712 74.3565 120.695 73.9891 120.513 73.6951C120.33 73.4011 120.009 73.2222 119.663 73.2222H118.874C117.355 73.2221 115.856 72.8656 114.497 72.1804L105.976 67.8848C105.836 67.8144 105.682 67.7778 105.526 67.7778H101.4C100.848 67.7778 100.4 68.2255 100.4 68.7778V134.111C100.4 134.663 100.848 135.111 101.4 135.111H117.6C118.764 135.111 119.883 135.577 120.708 136.41C121.534 137.243 122 138.374 122 139.556C122 140.737 121.534 141.868 120.708 142.701C119.883 143.534 118.764 144 117.6 144H74.4C73.2357 144 72.1174 143.534 71.2916 142.701C70.4655 141.868 70 140.737 70 139.556C70 138.374 70.4655 137.243 71.2916 136.41C72.1174 135.577 73.2357 135.111 74.4 135.111H90.6C91.1523 135.111 91.6 134.663 91.6 134.111V68.7778C91.6 68.2255 91.1523 67.7778 90.6 67.7778H86.4744C86.318 67.7778 86.1639 67.8144 86.0243 67.8848L77.5032 72.1804C76.1435 72.8656 74.6448 73.2221 73.1256 73.2222C73.1256 73.2222 73.1256 73.2222 73.1255 73.2222H72.3372C71.9912 73.2222 71.6698 73.4011 71.4874 73.6951C71.305 73.9891 71.2876 74.3565 71.4413 74.6664L83.7317 99.455L83.7321 99.4559C84.039 100.073 84.1993 100.754 84.2 101.446C84.1997 106.958 82.0274 112.244 78.1635 116.139C74.2996 120.035 69.0608 122.222 63.6 122.222C58.1392 122.222 52.9004 120.035 49.0365 116.139C45.1725 112.244 43.0001 106.958 43 101.445C43.0008 100.754 43.1611 100.073 43.4679 99.4559L43.4683 99.455L55.7587 74.6664C55.9124 74.3565 55.895 73.9891 55.7126 73.6951C55.5302 73.4011 55.2088 73.2222 54.8628 73.2222H52.8C51.6357 73.2222 50.5174 72.756 49.6916 71.9234C48.8655 71.0905 48.4 69.9592 48.4 68.7778C48.4 67.5964 48.8655 66.4651 49.6916 65.6322C50.5174 64.7996 51.6357 64.3333 52.8 64.3333H73.1256C73.282 64.3333 73.4361 64.2967 73.5758 64.2263L82.0968 59.9307C83.4565 59.2455 84.9552 58.889 86.4744 58.8889C86.4744 58.8889 86.4744 58.8889 86.4745 58.8889H90.6C91.1523 58.8889 91.6 58.4412 91.6 57.8889V52.4444C91.6 51.2631 92.0655 50.1317 92.8916 49.2988C93.7174 48.4662 94.8357 48 96 48C97.1643 48 98.2826 48.4662 99.1084 49.2988C99.9345 50.1317 100.4 51.2631 100.4 52.4444V57.8889ZM64.4958 80.5072C64.327 80.1668 63.9799 79.9516 63.6 79.9516C63.2201 79.9516 62.873 80.1668 62.7042 80.5072L51.9636 102.16C51.8794 102.329 51.8451 102.52 51.8648 102.708C52.1697 105.627 53.5359 108.331 55.7022 110.297C57.8687 112.263 60.682 113.353 63.6 113.353C66.518 113.353 69.3313 112.263 71.4978 110.297C73.6641 108.331 75.0303 105.627 75.3352 102.708C75.3549 102.52 75.3206 102.329 75.2364 102.16L64.4958 80.5072ZM129.296 80.5073C129.127 80.1669 128.78 79.9516 128.4 79.9516C128.02 79.9515 127.673 80.1668 127.504 80.5072L116.764 102.16C116.679 102.33 116.645 102.52 116.665 102.708C116.962 105.546 118.262 108.183 120.331 110.136C122.399 112.089 125.097 113.227 127.931 113.341C130.766 113.454 133.545 112.535 135.761 110.753C137.977 108.971 139.48 106.446 140 103.641C140.002 103.629 140.004 103.616 140.006 103.604L140.13 102.754C140.16 102.553 140.127 102.348 140.036 102.165L129.296 80.5073Z" fill="white" stroke="#C6B7FB" stroke-width="2" stroke-linejoin="round"/>
</g>
</svg>
