<svg width="192" height="192" viewBox="0 0 192 192" fill="none" xmlns="http://www.w3.org/2000/svg">
<g id="icon_sensitive_choose_skin_type">
<rect y="2.28882e-05" width="192" height="192" rx="96" fill="#C6B7FB"/>
<g id="Group 5">
<path id="Vector" d="M83.2795 68.7373C84.7949 67.6709 86.6041 67.1007 88.4575 67.1053C90.3109 67.11 92.1172 67.6892 93.6274 68.7631C95.1572 69.8797 96.3175 71.4258 96.9535 73.2125L100.795 85.0059C101.779 87.9632 103.438 90.6509 105.641 92.856C107.845 95.0611 110.532 96.7229 113.489 97.7098L125.444 101.575C127.212 102.215 128.734 103.392 129.797 104.942C130.859 106.492 131.408 108.336 131.366 110.214C131.324 112.093 130.694 113.91 129.564 115.412C128.434 116.913 126.861 118.022 125.066 118.582L113.249 122.43C110.288 123.412 107.597 125.069 105.388 127.271C103.18 129.474 101.517 132.16 100.529 135.117L96.6441 147.039C96.0185 148.796 94.8608 150.314 93.3318 151.382C91.8029 152.45 89.9789 153.016 88.1135 153C86.2481 152.984 84.4341 152.387 82.9238 151.292C81.4135 150.198 80.2821 148.66 79.6869 146.893L75.7592 134.868C74.7755 131.991 73.1502 129.374 71.0062 127.216C68.8621 125.059 66.2554 123.416 63.383 122.413L51.4366 118.574C49.6798 117.947 48.1618 116.79 47.0933 115.262C46.0248 113.734 45.4588 111.911 45.4739 110.047C45.489 108.183 46.0845 106.37 47.1777 104.859C48.2708 103.349 49.8074 102.216 51.5741 101.618L63.383 97.7957C66.3564 96.8074 69.0566 95.1365 71.2671 92.9168C73.4776 90.6972 75.1368 87.9907 76.1116 85.0145L79.9963 73.0664C80.6152 71.3142 81.7668 69.8024 83.2795 68.7373ZM84.01 132.429L88.5394 144.256L92.321 132.429C93.727 128.194 96.1046 124.346 99.2638 121.193C102.423 118.04 106.276 115.67 110.516 114.27L122.6 109.718L110.722 105.878C106.487 104.467 102.64 102.088 99.4844 98.9319C96.3292 95.7756 93.9531 91.9281 92.5444 87.6944L88.0495 75.858L84.1905 87.703C82.8049 91.9369 80.4507 95.7896 77.3148 98.9553C74.1458 102.12 70.2862 104.507 66.0388 105.93L54.1954 110.414L66.1075 114.279C70.2901 115.726 74.0836 118.116 77.1945 121.262C80.2819 124.422 82.6121 128.239 84.01 132.429Z" fill="white"/>
<path id="Vector_2" d="M121.554 35.0056C122.24 34.5125 123.028 34.1893 123.857 34.0616C124.687 33.934 125.533 34.0054 126.331 34.2701C127.129 34.5349 127.855 34.9858 128.453 35.5871C129.05 36.1885 129.503 36.9238 129.775 37.7349L131.438 42.9604C131.796 44.0442 132.392 45.0295 133.182 45.8405C133.973 46.6634 134.938 47.2669 135.998 47.6235L141.175 49.3515C142.243 49.7286 143.168 50.441 143.817 51.3871C144.466 52.3333 144.806 53.4648 144.789 54.6204C144.772 55.7759 144.398 56.8964 143.721 57.822C143.045 58.7477 142.1 59.4311 141.021 59.775L135.897 61.4893C134.837 61.8498 133.873 62.4575 133.082 63.2644C132.29 64.0713 131.693 65.0553 131.337 66.1387L129.648 71.4396C129.285 72.5298 128.595 73.4756 127.678 74.143C126.76 74.8104 125.66 75.1654 124.534 75.1578C123.407 75.1502 122.312 74.7804 121.403 74.1007C120.494 73.4211 119.817 72.466 119.468 71.371L117.812 66.1456C117.47 65.0701 116.89 64.0901 116.116 63.2822C115.343 62.4744 114.397 61.8607 113.352 61.4893L108.169 59.7612C107.102 59.3916 106.176 58.688 105.523 57.7503C104.869 56.8126 104.52 55.6882 104.526 54.5366C104.532 53.385 104.892 52.2645 105.556 51.3338C106.219 50.4032 107.152 49.7097 108.222 49.3515L113.339 47.6577C114.412 47.2874 115.378 46.6771 116.169 45.8679C116.967 45.0519 117.557 44.0644 117.899 42.9741L119.596 37.6664C119.963 36.5934 120.647 35.6637 121.554 35.0056ZM115.431 54.1587L114.231 54.5564L115.465 54.9953C117.493 55.7243 119.333 56.9166 120.843 58.4815C122.354 60.0464 123.496 61.9428 124.182 64.0266L124.571 65.2472L124.974 64.006C125.657 61.9038 126.811 59.9936 128.343 58.427C129.875 56.8604 131.743 55.6807 133.798 54.9816L135.106 54.5495L133.899 54.1381C131.839 53.438 129.967 52.2549 128.434 50.6831C126.9 49.1114 125.747 47.1947 125.067 45.0862L124.672 43.845L124.283 45.0793C123.604 47.1941 122.45 49.1167 120.912 50.6923C119.375 52.268 117.498 53.4529 115.431 54.1518V54.1587Z" fill="white"/>
<path id="Vector_3" d="M45.4736 54.7398C45.4736 54.0668 45.741 53.4214 46.2168 52.9455C46.6927 52.4697 47.3381 52.2024 48.011 52.2024H55.6233V44.5901C55.6233 43.9171 55.8906 43.2717 56.3665 42.7959C56.8423 42.32 57.4878 42.0527 58.1607 42.0527C58.8337 42.0527 59.4791 42.32 59.9549 42.7959C60.4308 43.2717 60.6981 43.9171 60.6981 44.5901V52.2024H68.3104C68.9833 52.2024 69.6287 52.4697 70.1046 52.9455C70.5805 53.4214 70.8478 54.0668 70.8478 54.7398C70.8478 55.4127 70.5805 56.0581 70.1046 56.534C69.6287 57.0099 68.9833 57.2772 68.3104 57.2772H60.6981V64.8894C60.6981 65.5624 60.4308 66.2078 59.9549 66.6837C59.4791 67.1595 58.8337 67.4269 58.1607 67.4269C57.4878 67.4269 56.8423 67.1595 56.3665 66.6837C55.8906 66.2078 55.6233 65.5624 55.6233 64.8894V57.2772H48.011C47.3381 57.2772 46.6927 57.0099 46.2168 56.534C45.741 56.0581 45.4736 55.4127 45.4736 54.7398Z" fill="white"/>
<path id="Vector_4" d="M138.526 93.9474C138.526 93.5203 138.696 93.1106 138.998 92.8086C139.3 92.5066 139.71 92.3369 140.137 92.3369H144.968V87.5053C144.968 87.0782 145.138 86.6685 145.44 86.3665C145.742 86.0645 146.152 85.8948 146.579 85.8948C147.006 85.8948 147.416 86.0645 147.718 86.3665C148.02 86.6685 148.189 87.0782 148.189 87.5053V92.3369H153.021C153.448 92.3369 153.858 92.5066 154.16 92.8086C154.462 93.1106 154.631 93.5203 154.631 93.9474C154.631 94.3745 154.462 94.7842 154.16 95.0862C153.858 95.3882 153.448 95.5579 153.021 95.5579H148.189V100.39C148.189 100.817 148.02 101.226 147.718 101.528C147.416 101.83 147.006 102 146.579 102C146.152 102 145.742 101.83 145.44 101.528C145.138 101.226 144.968 100.817 144.968 100.39V95.5579H140.137C139.71 95.5579 139.3 95.3882 138.998 95.0862C138.696 94.7842 138.526 94.3745 138.526 93.9474Z" fill="white"/>
<circle id="Ellipse 24" cx="151.053" cy="124.368" r="4.47368" stroke="white" stroke-width="3"/>
<circle id="Ellipse 25" cx="134.5" cy="137.342" r="3.13158" stroke="white" stroke-width="3"/>
</g>
</g>
</svg>
